<svg width="80" height="60" viewBox="0 0 80 60" fill="none" xmlns="http://www.w3.org/2000/svg">
<g clip-path="url(#clip0)">
<path d="M27.6665 38.8852L40.9998 52L54.3332 38.8852" stroke="#1D1D1D" stroke-width="3" stroke-linecap="round" stroke-linejoin="round"/>
<path d="M19.14 13.5776L13.434 26.3936L11.544 26.3936L5.838 13.5776L8.25 13.5776L12.516 23.4776L16.782 13.5776L19.14 13.5776ZM20.1967 17.3036L22.4287 17.3036L22.4287 26.3936L20.1967 26.3936L20.1967 17.3036ZM22.5547 13.1816L22.5547 15.3956L20.0527 15.3956L20.0527 13.1816L22.5547 13.1816ZM32.846 21.9656L26.582 21.9656C26.63 22.9376 26.87 23.6576 27.302 24.1256C27.746 24.5816 28.4 24.8096 29.264 24.8096C30.26 24.8096 31.184 24.4856 32.036 23.8376L32.684 25.3856C32.252 25.7336 31.718 26.0156 31.082 26.2316C30.458 26.4356 29.822 26.5376 29.174 26.5376C27.686 26.5376 26.516 26.1176 25.664 25.2776C24.812 24.4376 24.386 23.2856 24.386 21.8216C24.386 20.8976 24.572 20.0756 24.944 19.3556C25.316 18.6356 25.838 18.0776 26.51 17.6816C27.182 17.2736 27.944 17.0696 28.796 17.0696C30.044 17.0696 31.028 17.4776 31.748 18.2936C32.48 19.0976 32.846 20.2076 32.846 21.6236L32.846 21.9656ZM28.85 18.6896C28.25 18.6896 27.758 18.8696 27.374 19.2296C27.002 19.5776 26.762 20.0876 26.654 20.7596L30.884 20.7596C30.812 20.0756 30.602 19.5596 30.254 19.2116C29.918 18.8636 29.45 18.6896 28.85 18.6896ZM49.0651 17.3036L45.5011 26.3936L43.5391 26.3936L41.2891 20.4356L39.0931 26.3936L37.1131 26.3936L33.5491 17.3036L35.8531 17.3036L38.1931 23.7116L40.5511 17.3036L42.1711 17.3036L44.5291 23.7656L46.8691 17.3036L49.0651 17.3036ZM64.1172 17.3036L64.1172 26.3936L61.9032 26.3936L61.9032 24.9356C61.6272 25.4396 61.2312 25.8356 60.7152 26.1236C60.1992 26.3996 59.6112 26.5376 58.9512 26.5376C58.1592 26.5376 57.4572 26.3456 56.8452 25.9616C56.2332 25.5776 55.7592 25.0316 55.4232 24.3236C55.0872 23.6156 54.9192 22.7936 54.9192 21.8576C54.9192 20.9216 55.0872 20.0936 55.4232 19.3736C55.7712 18.6416 56.2512 18.0776 56.8632 17.6816C57.4752 17.2736 58.1712 17.0696 58.9512 17.0696C59.6112 17.0696 60.1992 17.2136 60.7152 17.5016C61.2312 17.7776 61.6272 18.1676 61.9032 18.6716L61.9032 17.3036L64.1172 17.3036ZM59.5632 24.7736C60.3072 24.7736 60.8832 24.5156 61.2912 23.9996C61.6992 23.4836 61.9032 22.7576 61.9032 21.8216C61.9032 20.8616 61.6992 20.1236 61.2912 19.6076C60.8832 19.0916 60.3012 18.8336 59.5452 18.8336C58.8012 18.8336 58.2192 19.1036 57.7992 19.6436C57.3912 20.1716 57.1872 20.9096 57.1872 21.8576C57.1872 22.7936 57.3912 23.5136 57.7992 24.0176C58.2192 24.5216 58.8072 24.7736 59.5632 24.7736ZM66.5678 13.1456L68.7998 13.1456L68.7998 26.3936L66.5678 26.3936L66.5678 13.1456ZM71.2611 13.1456L73.4931 13.1456L73.4931 26.3936L71.2611 26.3936L71.2611 13.1456Z" fill="black"/>
</g>
<defs>
<clipPath id="clip0">
<rect width="60" height="80" fill="white" transform="translate(0 60) rotate(-90)"/>
</clipPath>
</defs>
</svg>
