<svg width="32" height="28" viewBox="0 0 32 28" fill="none" xmlns="http://www.w3.org/2000/svg">
<path d="M30.9375 0.42627H0.3125C0.140625 0.42627 0 0.566895 0 0.73877V3.23877C0 3.41064 0.140625 3.55127 0.3125 3.55127H30.9375C31.1094 3.55127 31.25 3.41064 31.25 3.23877V0.73877C31.25 0.566895 31.1094 0.42627 30.9375 0.42627ZM30.9375 24.8013H0.3125C0.140625 24.8013 0 24.9419 0 25.1138V27.6138C0 27.7856 0.140625 27.9263 0.3125 27.9263H30.9375C31.1094 27.9263 31.25 27.7856 31.25 27.6138V25.1138C31.25 24.9419 31.1094 24.8013 30.9375 24.8013ZM30.9375 12.6138H0.3125C0.140625 12.6138 0 12.7544 0 12.9263V15.4263C0 15.5981 0.140625 15.7388 0.3125 15.7388H30.9375C31.1094 15.7388 31.25 15.5981 31.25 15.4263V12.9263C31.25 12.7544 31.1094 12.6138 30.9375 12.6138Z" fill="black"/>
</svg>
