<svg width="60" height="42" viewBox="0 0 60 42" fill="none" xmlns="http://www.w3.org/2000/svg">
<path d="M58.7294 6.46506C58.3809 5.21956 57.7168 4.08513 56.8013 3.1716C55.8858 2.25808 54.75 1.59642 53.5037 1.25068C48.8256 5.98133e-05 30.0194 6.00931e-05 30.0194 6.00931e-05C30.0194 6.00931e-05 11.2487 -0.0299402 6.52185 1.25068C5.27759 1.59793 4.14396 2.26029 3.23052 3.17373C2.31708 4.08717 1.65472 5.22081 1.30747 6.46506C0.419095 11.2542 -0.0184432 16.1161 0.000595468 20.9869C-0.00807283 25.8343 0.429397 30.6722 1.30747 35.4394C1.65584 36.6844 2.3184 37.8188 3.23152 38.7339C4.14464 39.649 5.27768 40.314 6.52185 40.6651C11.2 41.9157 30.0194 41.9157 30.0194 41.9157C30.0194 41.9157 48.7787 41.9157 53.5037 40.6651C54.7499 40.3155 55.8852 39.6512 56.8003 38.736C57.7155 37.8209 58.3798 36.6856 58.7294 35.4394C59.59 30.6751 60.01 25.8301 59.98 20.9869C60.01 16.1119 59.5993 11.2594 58.7294 6.46506ZM24.0119 29.9626V11.9719L39.6662 20.9869L24.0119 29.9626Z" fill="white"/>
</svg>
