<svg width="60" height="60" viewBox="0 0 60 60" fill="none" xmlns="http://www.w3.org/2000/svg">
<path d="M30.0002 0C21.8458 0 20.8295 0.039375 17.6383 0.174375C14.4339 0.331875 12.2664 0.82875 10.3539 1.57125C8.35227 2.32691 6.53953 3.51003 5.04203 5.03812C3.50967 6.53212 2.3259 8.34587 1.57516 10.35C0.832656 12.2625 0.335781 14.43 0.178281 17.6344C0.0339063 20.8275 0.00390625 21.8419 0.00390625 29.9962C0.00390625 38.1506 0.0432813 39.1669 0.178281 42.3581C0.335781 45.5531 0.832656 47.73 1.57516 49.6425C2.33082 51.6441 3.51394 53.4569 5.04203 54.9544C6.53603 56.4867 8.34978 57.6705 10.3539 58.4212C12.2664 59.1544 14.4433 59.6606 17.6383 59.8181C20.8314 59.9625 21.8458 59.9925 30.0002 59.9925C38.1545 59.9925 39.1708 59.9531 42.362 59.8181C45.557 59.6606 47.7339 59.1525 49.6464 58.4212C51.648 57.6656 53.4608 56.4825 54.9583 54.9544C56.4926 53.462 57.6767 51.6478 58.4252 49.6425C59.1583 47.73 59.6645 45.5531 59.822 42.3581C59.9664 39.165 59.9964 38.1506 59.9964 29.9962C59.9964 21.8419 59.957 20.8256 59.822 17.6344C59.6645 14.4394 59.1564 12.2512 58.4252 10.35C57.6695 8.34837 56.4864 6.53562 54.9583 5.03812C53.4659 3.50379 51.6517 2.31971 49.6464 1.57125C47.7339 0.82875 45.557 0.331875 42.362 0.174375C39.1689 0.03 38.1545 0 30.0002 0ZM30.0002 5.4C38.0083 5.4 38.9645 5.43937 42.1295 5.57437C45.0489 5.71125 46.6389 6.19875 47.6945 6.61125C48.9996 7.09298 50.1808 7.85972 51.152 8.85562C52.1462 9.8228 52.9101 11.0013 53.387 12.3037C53.7995 13.3594 54.287 14.9494 54.4239 17.8687C54.5589 21.0337 54.5983 21.9919 54.5983 29.9981C54.5983 38.0044 54.5589 38.9625 54.4127 42.1275C54.2552 45.0469 53.7677 46.6369 53.357 47.6925C52.7889 49.1006 52.1552 50.085 51.1089 51.15C50.1344 52.1397 48.9539 52.9027 47.6514 53.385C46.6089 53.7975 44.9964 54.285 42.0658 54.4219C38.8839 54.5569 37.9464 54.5962 29.9177 54.5962C21.8889 54.5962 20.9533 54.5569 17.7677 54.4106C14.8483 54.2531 13.2377 53.7656 12.182 53.355C10.757 52.7869 9.78016 52.1531 8.73391 51.1069C7.67828 50.0512 7.00703 49.0462 6.48953 47.6494C6.06953 46.6069 5.58953 44.9944 5.43391 42.0637C5.32703 38.9194 5.27641 37.9444 5.27641 29.9531C5.27641 21.9656 5.32703 20.9887 5.43391 17.805C5.58953 14.8744 6.06953 13.2656 6.48953 12.2194C7.00703 10.7925 7.68016 9.8175 8.73391 8.76187C9.77828 7.7175 10.757 7.0425 12.182 6.51375C13.2377 6.10312 14.8089 5.61562 17.7395 5.46937C20.9214 5.355 21.8589 5.31375 29.8764 5.31375L30.0002 5.4ZM30.0002 14.6006C27.9777 14.5999 25.9749 14.9977 24.1062 15.7713C22.2375 16.545 20.5396 17.6792 19.1095 19.1093C17.6794 20.5395 16.5451 22.2374 15.7715 24.106C14.9979 25.9747 14.6 27.9775 14.6008 30C14.6 32.0225 14.9979 34.0253 15.7715 35.894C16.5451 37.7626 17.6794 39.4605 19.1095 40.8906C20.5396 42.3208 22.2375 43.455 24.1062 44.2287C25.9749 45.0023 27.9777 45.4001 30.0002 45.3994C32.0226 45.4001 34.0254 45.0023 35.8941 44.2287C37.7628 43.455 39.4607 42.3208 40.8908 40.8906C42.3209 39.4605 43.4552 37.7626 44.2288 35.894C45.0025 34.0253 45.4003 32.0225 45.3995 30C45.4003 27.9775 45.0025 25.9747 44.2288 24.106C43.4552 22.2374 42.3209 20.5395 40.8908 19.1093C39.4607 17.6792 37.7628 16.545 35.8941 15.7713C34.0254 14.9977 32.0226 14.5999 30.0002 14.6006ZM30.0002 39.9994C24.4727 39.9994 20.0008 35.5275 20.0008 30C20.0008 24.4725 24.4727 20.0006 30.0002 20.0006C35.5277 20.0006 39.9995 24.4725 39.9995 30C39.9995 35.5275 35.5277 39.9994 30.0002 39.9994ZM49.6202 13.9856C49.6192 14.9412 49.2388 15.8574 48.5628 16.5328C47.8867 17.2081 46.9702 17.5875 46.0145 17.5875C45.542 17.5875 45.0741 17.4944 44.6376 17.3136C44.201 17.1328 43.8044 16.8677 43.4703 16.5336C43.1362 16.1995 42.8711 15.8029 42.6903 15.3663C42.5095 14.9298 42.4164 14.4619 42.4164 13.9894C42.4164 13.5169 42.5095 13.049 42.6903 12.6124C42.8711 12.1759 43.1362 11.7792 43.4703 11.4451C43.8044 11.111 44.201 10.846 44.6376 10.6651C45.0741 10.4843 45.542 10.3912 46.0145 10.3912C47.9964 10.3912 49.6202 12.0037 49.6202 13.9856Z" fill="white"/>
</svg>
